<?xml version="1.0" encoding="UTF-8"?>
<svg id="Calque_2" data-name="Calque 2" xmlns="http://www.w3.org/2000/svg" viewBox="0 0 143 209.26">
  <defs>
    <style type="text/css">
      @font-face {
      font-family: "ArialRoundedMTBold";
      src: local("Arial Rounded MT Bold"),
      url("/font/arlrdbd.ttf");
      }
      .cls-1, .cls-2 {
      fill: #f0f0f0;
      }

      .cls-3 {
      fill: #e6e6e7;
      }

      .cls-4 {
      fill: #59595b;
      }

      .cls-5 {
      fill: #ccc;
      }

      .cls-6 {
      fill: #376cfb;
      }

      .cls-2 {
      font-family: ArialRoundedMTBold, 'Arial Rounded MT Bold';
      font-size: 60px;
      }
    </style>
  </defs>
  <g id="Calque_1-2" data-name="Calque 1">
    <g>
      <path class="cls-1"
        d="m143,35.33v154.92c0,6.6-5.4,12-12,12H12c-6.6,0-12-5.4-12-12V12C0,5.4,5.4,0,12,0h97.58l33.42,35.33Z" />
      <line class="cls-3" x1="143" y1="35.33" x2="109.58" y2="0" />
      <path class="cls-4"
        d="m109.58,25.9v-1.55s0-1.01,0-1.01l4.85-4.71L109.58,0l15.89,19.81,17.52,15.52.02,2.57h-21.42c-6.6,0-12-5.4-12-12Z" />
      <line class="cls-3" x1="109.58" y1="0" x2="143" y2="35.33" />
      <path class="cls-5" d="m109.58,23.33V0l33.42,35.33h-21.42c-6.6,0-12-5.4-12-12Z" />
      <path class="cls-6"
        d="m143,147.29v42.96c0,6.6-5.4,12-12,12H12c-6.6,0-12-5.4-12-12v-42.96h143Z" />
      <text class="cls-2" transform="translate(8.67 196.61)">
        <tspan x="0" y="0">MP4</tspan>
      </text>
      <path class="cls-6"
        d="m120.02,66.55v35.63c0,2.37-2.56,3.85-4.62,2.67l-27.41-15.82v18.49H31.3c-2.38,0-4.31-1.93-4.31-4.31v-37.68c0-2.38,1.94-4.31,4.31-4.31h56.69v18.49l27.41-15.82c2.06-1.18,4.62.3,4.62,2.67Z" />
    </g>
  </g>
</svg>