<?xml version="1.0" encoding="UTF-8"?>
<svg id="Calque_2" data-name="Calque 2" xmlns="http://www.w3.org/2000/svg" viewBox="0 0 143 209.26">
  <defs>
    <style type="text/css">
			@font-face {
				font-family: "ArialRoundedMTBold";
				src: local("Arial Rounded MT Bold"),
					url("/font/arlrdbd.ttf");
			}
      .cls-1 {
        fill: #f1786b;
      }

      .cls-2, .cls-3 {
        fill: #f0f0f0;
      }

      .cls-4 {
        fill: #e6e6e7;
      }

      .cls-5 {
        fill: #59595b;
      }

      .cls-6 {
        fill: #ccc;
      }

      .cls-3 {
        font-family: ArialRoundedMTBold, 'Arial Rounded MT Bold';
        font-size: 60px;
      }
    </style>
  </defs>
  <g id="Calque_1-2" data-name="Calque 1">
    <g>
      <path class="cls-2" d="m143,35.33v154.92c0,6.6-5.4,12-12,12H12c-6.6,0-12-5.4-12-12V12C0,5.4,5.4,0,12,0h97.58l33.42,35.33Z"/>
      <line class="cls-4" x1="143" y1="35.33" x2="109.58" y2="0"/>
      <path class="cls-5" d="m109.58,25.9v-1.55s0-1.01,0-1.01l4.85-4.71L109.58,0l15.89,19.81,17.52,15.52.02,2.57h-21.42c-6.6,0-12-5.4-12-12Z"/>
      <line class="cls-4" x1="109.58" y1="0" x2="143" y2="35.33"/>
      <path class="cls-6" d="m109.58,23.33V0l33.42,35.33h-21.42c-6.6,0-12-5.4-12-12Z"/>
      <path class="cls-1" d="m143,147.29v42.96c0,6.6-5.4,12-12,12H12c-6.6,0-12-5.4-12-12v-42.96h143Z"/>
      <path class="cls-1" d="m32.4,108.11c4.54-9.98,13.37-15.06,23.02-18.87,3.61-6.71,6.68-13.67,9.86-20.67-2.22-3.38-3.84-7-4.56-10.97-1.34-6.74-2.03-17.08,6.09-19.69h2.09c4.25,1.85,5.34,5.57,5.58,9.69.41,7.27-.25,11.09-3.24,20.27,4.41,5.36,8.76,10.96,13.58,16.47,7.57-.15,22.7.01,25.79,8.49v3.13c-4.12,7.55-12.97,6-19.04,1.68-3.31-2.26-6.16-5.05-9.01-7.99-8,.46-15.92,1.58-23.53,3.97-2.04,3.66-4.03,7.19-6.31,10.52-3.35,4.91-6.66,9.89-12.68,11.98h-3.48c-1.9-1.04-3.41-2.43-4.17-4.52v-3.48Zm18.04-10.81c-1.8.68-3.33,1.83-4.84,2.98-2.68,2.04-5.2,4.26-7.03,7.13-.64,1-1.29,2.06-.65,3.39,4.38.75,10.71-9.91,12.78-13.29.05-.13.09-.25.14-.38-.24-.1-.34-.01-.39.16Zm18.47-23.99c-2.18,4.69-4.25,9.16-6.46,13.9,5.36-1.26,10.39-1.99,15.7-2.54-3.15-3.87-6.12-7.52-9.24-11.37Zm-1.27-11.35c1.45-4.95,2.01-9.69,1.56-14.53-.14-1.52-.28-3.09-1.58-4.27-1.41.86-1.84,2.23-2.18,3.64-.69,2.83-.24,5.64.16,8.45.31,2.22.86,4.39,2.04,6.71Zm22.84,27.82c2.73,2.63,5.51,5.18,9.31,5.97,2,.41,4.12.63,5.92-1.62-4.4-4.19-9.88-4.01-15.24-4.35Z"/>
      <text class="cls-3" transform="translate(11.16 196.61)"><tspan x="0" y="0">PDF</tspan></text>
    </g>
  </g>
</svg>