<?xml version="1.0" encoding="UTF-8"?>
<svg id="Calque_2" data-name="Calque 2" xmlns="http://www.w3.org/2000/svg" viewBox="0 0 143 202.37">
  <defs>
    <style type="text/css">
      @font-face {
      font-family: "ArialRoundedMTBold";
      src: local("Arial Rounded MT Bold"),
      url("/font/arlrdbd.ttf");
      }
      .cls-1, .cls-2 {
        fill: #f0f0f0;
      }

      .cls-3 {
        fill: #e6e6e7;
      }

      .cls-4, .cls-5 {
        fill: #e56027;
      }

      .cls-6 {
        fill: #59595b;
      }

      .cls-7 {
        fill: #ccc;
      }

      .cls-2 {
        font-family: ArialRoundedMTBold, 'Arial Rounded MT Bold';
        font-size: 48px;
      }

      .cls-5 {
        stroke: #e56027;
        stroke-linecap: round;
        stroke-linejoin: round;
        stroke-width: 5px;
      }
    </style>
  </defs>
  <g id="Calque_1-2" data-name="Calque 1">
    <g>
      <path class="cls-1" d="m143,35.33v154.92c0,6.6-5.4,12-12,12H12c-6.6,0-12-5.4-12-12V12C0,5.4,5.4,0,12,0h97.58l33.42,35.33Z"/>
      <line class="cls-3" x1="143" y1="35.33" x2="109.58" y2="0"/>
      <path class="cls-6" d="m109.58,25.9v-1.55s0-1.01,0-1.01l4.85-4.71L109.58,0l15.89,19.81,17.52,15.52.02,2.57h-21.42c-6.6,0-12-5.4-12-12Z"/>
      <line class="cls-3" x1="109.58" y1="0" x2="143" y2="35.33"/>
      <path class="cls-7" d="m109.58,23.33V0l33.42,35.33h-21.42c-6.6,0-12-5.4-12-12Z"/>
      <path class="cls-4" d="m143,147.29v42.96c0,6.6-5.4,12-12,12H12c-6.6,0-12-5.4-12-12v-42.96h143Z"/>
      <text class="cls-2" transform="translate(3.78 192.24)"><tspan x="0" y="0">HTML</tspan></text>
      <path class="cls-5" d="m62.69,57.68l-27.15,21.22c-.79.62-1.24,1.52-1.24,2.47s.45,1.85,1.24,2.47l27.15,21.22v-7.53l-20.68-16.16,20.68-16.16v-7.53Z"/>
      <path class="cls-5" d="m81.02,105.08l27.15-21.22c.79-.62,1.24-1.52,1.24-2.47s-.45-1.85-1.24-2.47l-27.15-21.22v7.53s20.68,16.16,20.68,16.16l-20.68,16.16v7.53Z"/>
    </g>
  </g>
</svg>