<?xml version="1.0" encoding="UTF-8"?>
<svg id="Calque_2" data-name="Calque 2" xmlns="http://www.w3.org/2000/svg" viewBox="0 0 143 112.84">
  <defs>
      <style type="text/css">
        @font-face {
          font-family: "ArialRoundedMTBold";
          src: local("Arial Rounded MT Bold"),
            url("/font/arlrdbd.ttf");
        }
      .cls-1 {
        fill: #020814;
      }

      .cls-2 {
        fill: #2a303c;
      }

      .cls-3 {
        fill: #f1f1f2;
      }
    </style>
  </defs>
  <g id="Calque_1-2" data-name="Calque 1">
    <g>
      <path class="cls-1" d="m140.14,11.87v91.48c0,2.52-2.06,4.58-4.58,4.58H10.83c-2.52,0-4.58-2.06-4.58-4.58V11.87c0-2.24,1.63-4.12,3.76-4.51,1.46-.23,2.59-1.5,2.59-3.02v-.7c0-1,.41-1.91,1.07-2.57.66-.66,1.57-1.07,2.57-1.07h42.92c2.01,0,3.64,1.64,3.64,3.64v.59c0,1.68,1.37,3.05,3.05,3.05h69.7c2.52,0,4.58,2.06,4.58,4.58Z"/>
      <rect class="cls-3" x="14.2" y="15.04" width="97.27" height="23.69" rx="1" ry="1"/>
      <path class="cls-2" d="m143,8.58v98.53c0,3.15-2.58,5.72-5.72,5.72H5.72c-3.15,0-5.72-2.58-5.72-5.72V27.03c0-3.15,2.58-5.72,5.72-5.72h80.4c2.56,0,4.75-1.71,5.47-4.05l3.71-10.38.12-.35c.83-2.15,2.92-3.68,5.34-3.68h36.51c3.15,0,5.72,2.58,5.72,5.72Z"/>
    </g>
  </g>
</svg>